<?xml version="1.0" encoding="UTF-8" standalone="no"?>
<!-- Generator: Gravit.io -->
<svg xmlns="http://www.w3.org/2000/svg" xmlns:xlink="http://www.w3.org/1999/xlink" style="isolation:isolate" viewBox="0 0 200 200" width="200pt" height="200pt"><defs><clipPath id="_clipPath_5SX9UDQk8zCw8kOko5H0biHU0RAzV0ls"><rect width="200" height="200"/></clipPath></defs><g clip-path="url(#_clipPath_5SX9UDQk8zCw8kOko5H0biHU0RAzV0ls)"><g><path d=" M 159.532 48.973 L 82.991 48.973 L 65.982 31.964 L 23.459 31.964 C 14.062 31.964 6.45 39.575 6.45 48.973 L 6.45 82.991 L 176.541 82.991 L 176.541 65.982 C 176.541 56.584 168.929 48.973 159.532 48.973 Z " fill="rgb(255,160,0)"/><path d=" M 159.532 48.973 L 23.459 48.973 C 14.062 48.973 6.45 56.584 6.45 65.982 L 6.45 151.027 C 6.45 160.425 14.062 168.036 23.459 168.036 L 159.532 168.036 C 168.929 168.036 176.541 160.425 176.541 151.027 L 176.541 65.982 C 176.541 56.584 168.929 48.973 159.532 48.973 Z " fill="rgb(255,202,40)"/><path d=" M 193.55 21.333 C 193.55 24.856 190.694 27.711 187.172 27.711 C 183.649 27.711 180.793 24.856 180.793 21.333 C 180.793 17.81 183.649 14.955 187.172 14.955 C 190.694 14.955 193.55 17.81 193.55 21.333 Z " fill="rgb(74,20,140)"/><path d=" M 191.424 57.477 C 169.15 57.477 151.027 39.354 151.027 17.081 L 151.027 14.955 L 138.27 14.955 L 138.27 19.207 L 138.368 19.207 C 139.482 46.813 161.692 69.022 189.298 70.136 L 189.298 70.234 L 193.55 70.234 L 193.55 57.477 L 191.424 57.477 Z " fill="rgb(156,39,176)"/><path d=" M 191.424 36.216 C 180.878 36.216 172.289 27.626 172.289 17.081 L 172.289 14.955 L 159.532 14.955 L 159.532 19.207 L 159.63 19.207 C 160.717 35.12 173.384 47.788 189.298 48.875 L 189.298 48.973 L 193.55 48.973 L 193.55 36.216 L 191.424 36.216 Z " fill="rgb(123,31,162)"/><path d=" M 191.424 78.739 C 157.423 78.739 129.766 51.082 129.766 17.081 L 129.766 14.955 L 117.009 14.955 L 117.009 19.207 L 117.107 19.207 C 118.242 58.54 149.964 90.262 189.298 91.398 L 189.298 91.495 L 193.55 91.495 L 193.55 78.739 L 191.424 78.739 Z " fill="rgb(186,104,200)"/><path d=" M 91.495 108.505 L 121.261 142.523 L 61.73 142.523 L 91.495 108.505 Z " fill="rgb(21,101,192)"/><path d=" M 78.739 137.739 L 104.252 137.739 L 104.252 185.045 L 78.739 185.045 L 78.739 137.739 Z " fill="rgb(21,101,192)"/></g></g></svg>